<?xml version="1.0" encoding="utf-8" standalone="no"?>
<!DOCTYPE svg PUBLIC "-//W3C//DTD SVG 1.1//EN"
  "http://www.w3.org/Graphics/SVG/1.1/DTD/svg11.dtd">
<svg height="320.466687pt" version="1.1" viewBox="0 0 269.130824 320.466687" width="269.130824pt" xmlns="http://www.w3.org/2000/svg" xmlns:xlink="http://www.w3.org/1999/xlink">
 <metadata>
  <rdf:RDF xmlns:cc="http://creativecommons.org/ns#" xmlns:dc="http://purl.org/dc/elements/1.1/" xmlns:rdf="http://www.w3.org/1999/02/22-rdf-syntax-ns#">
   <cc:Work>
    <dc:type rdf:resource="http://purl.org/dc/dcmitype/StillImage"/>
    <dc:date>2021-11-11T01:49:42.874582</dc:date>
    <dc:format>image/svg+xml</dc:format>
    <dc:creator>
     <cc:Agent>
      <dc:title>Matplotlib v3.4.3, https://matplotlib.org/</dc:title>
     </cc:Agent>
    </dc:creator>
   </cc:Work>
  </rdf:RDF>
 </metadata>
 <defs>
  <style type="text/css">*{stroke-linecap:butt;stroke-linejoin:round;}</style>
 </defs>
 <g id="figure_1">
  <g id="patch_1">
   <path d="M 0 320.466687 
L 269.130824 320.466687 
L 269.130824 0 
L 0 0 
z
" style="fill:#ffffff;"/>
  </g>
  <g id="axes_1">
   <g id="patch_2">
    <path d="M 20.5625 283.910437 
L 261.930824 283.910437 
L 261.930824 17.798437 
L 20.5625 17.798437 
z
" style="fill:#ffffff;"/>
   </g>
   <g id="PatchCollection_1">
    <path clip-path="url(#pedae9faac6)" d="M 56.835941 251.905709 
L 56.787718 252.164663 
L 56.575335 252.896281 
L 55.454248 258.734969 
L 43.728014 255.451672 
L 42.66663 260.573068 
L 39.897529 259.774953 
L 40.832476 259.355524 
L 43.592853 255.015755 
L 44.767238 255.050414 
L 46.579546 252.382731 
L 49.643924 252.779214 
L 50.822448 253.617027 
L 52.435857 254.033151 
L 53.756971 253.445931 
L 55.978396 253.863038 
L 56.297507 251.775406 
L 56.835941 251.905709 
" style="fill:#d3d3d3;"/>
    <path clip-path="url(#pedae9faac6)" d="M 223.662375 176.690683 
L 222.78725 176.841002 
L 221.457699 178.225155 
L 220.689369 177.766559 
L 216.327794 177.722881 
L 212.182244 178.911079 
L 209.677883 179.259526 
L 209.528316 179.845034 
L 204.904443 178.084885 
L 201.348235 177.872099 
L 198.261183 176.51885 
L 199.953325 175.171235 
L 200.916705 171.137364 
L 198.919844 170.213583 
L 202.050487 167.13554 
L 201.655557 166.339488 
L 199.643234 167.885711 
L 199.073146 166.17221 
L 199.940541 164.586112 
L 202.21341 163.291071 
L 202.080223 161.870796 
L 200.685631 160.035243 
L 200.83488 157.644096 
L 200.340641 156.557049 
L 196.346338 156.840827 
L 194.97484 157.45687 
L 192.818572 156.277558 
L 191.225097 157.595601 
L 187.70657 157.396821 
L 187.490007 156.626037 
L 186.058951 155.275334 
L 184.112368 155.759491 
L 183.509835 154.636438 
L 183.827522 153.654815 
L 181.597926 151.999188 
L 179.312767 153.177661 
L 178.542437 153.213507 
L 178.229005 154.281318 
L 177.303238 154.401107 
L 177.303183 154.401114 
L 175.966752 152.099965 
L 175.03138 150.980753 
L 175.363188 150.48293 
L 177.254654 150.034631 
L 177.86948 148.903188 
L 176.883081 148.087639 
L 175.143067 147.892882 
L 175.059517 147.15209 
L 173.92558 146.730776 
L 171.754176 144.618209 
L 171.909468 143.430443 
L 171.139865 141.676555 
L 168.741832 141.375106 
L 167.733928 142.161901 
L 167.152245 141.280686 
L 164.603679 140.914532 
L 163.302996 138.78562 
L 162.624116 136.935518 
L 161.377379 136.289599 
L 161.94953 134.822802 
L 160.385267 131.330407 
L 161.210765 128.713697 
L 160.726658 128.111201 
L 160.726668 128.111184 
L 162.344408 125.36122 
L 159.80176 124.058964 
L 159.801756 124.058961 
L 162.345216 117.989277 
L 163.300622 115.254991 
L 163.307286 113.089273 
L 159.8766 111.24919 
L 159.7652 108.534787 
L 157.356653 106.117036 
L 157.387107 102.501759 
L 154.185413 98.660921 
L 154.641282 95.365296 
L 151.602761 93.451861 
L 150.984408 90.704363 
L 151.995322 90.030595 
L 153.80057 87.791101 
L 153.800609 87.791051 
L 154.694727 86.023501 
L 157.76226 87.525966 
L 161.799415 86.987608 
L 168.888917 88.843782 
L 170.840202 90.042572 
L 172.206499 92.387947 
L 171.598729 95.054816 
L 169.66876 97.127097 
L 161.773984 96.985883 
L 160.858376 97.859127 
L 164.428799 99.70824 
L 165.237644 101.410345 
L 166.900147 105.206788 
L 169.465452 105.534415 
L 171.157144 105.983595 
L 170.570513 104.095424 
L 168.908808 102.893387 
L 169.286914 101.074878 
L 174.130289 101.708155 
L 174.993024 100.207956 
L 172.629773 98.027214 
L 174.187293 92.829229 
L 175.608063 92.354159 
L 177.640905 92.87899 
L 177.022189 90.012649 
L 174.644577 88.547233 
L 174.048457 86.08989 
L 171.801091 84.439324 
L 173.895559 84.010179 
L 223.662375 176.690683 
" style="fill:#d3d3d3;"/>
    <path clip-path="url(#pedae9faac6)" d="M 154.029377 150.839564 
L 149.778374 151.603868 
L 146.850996 151.561416 
L 147.1336 149.732846 
L 150.091068 147.973297 
L 152.589342 148.275841 
L 153.709279 148.728684 
L 153.662007 149.859261 
L 154.029377 150.839564 
" style="fill:#d3d3d3;"/>
    <path clip-path="url(#pedae9faac6)" d="M 188.773703 176.769773 
L 189.169619 175.583288 
L 191.304993 175.772411 
L 192.200721 175.629687 
L 192.792752 176.267991 
L 193.22935 176.244239 
L 193.361175 176.568609 
L 194.964502 177.029991 
L 197.574307 175.804623 
L 197.537418 177.36076 
L 194.850994 179.089924 
L 191.906218 182.581986 
L 190.151947 182.298088 
L 190.191779 180.288036 
L 186.907557 180.106143 
L 187.161868 179.214048 
L 189.321694 177.100455 
L 188.773703 176.769773 
" style="fill:#d3d3d3;"/>
    <path clip-path="url(#pedae9faac6)" d="M 128.080451 52.225162 
L 128.230823 50.869026 
L 129.268254 50.633942 
L 130.369199 51.885311 
L 133.381292 54.395831 
L 131.653208 56.232618 
L 131.63018 59.158613 
L 130.968547 59.987593 
L 130.953217 63.276007 
L 129.837911 63.539183 
L 127.651271 61.28776 
L 128.355917 59.841751 
L 126.975769 58.782822 
L 125.229039 55.521575 
L 124.581074 52.458311 
L 126.538493 51.002111 
L 127.024508 52.35039 
L 128.080451 52.225162 
" style="fill:#d3d3d3;"/>
    <path clip-path="url(#pedae9faac6)" d="M 153.80057 87.791101 
L 151.995322 90.030595 
L 150.984408 90.704363 
L 150.721658 87.85065 
L 148.531393 86.801202 
L 146.808773 88.639741 
L 146.878474 91.642695 
L 145.946719 93.671309 
L 144.18037 93.053048 
L 142.340486 93.607911 
L 140.349205 91.807838 
L 139.680725 92.984976 
L 138.815911 93.282325 
L 139.02175 95.910357 
L 136.138066 95.641101 
L 136.022071 97.894442 
L 134.563855 98.034623 
L 133.838312 100.959144 
L 132.630388 105.506742 
L 130.39962 111.290107 
L 131.112242 112.622818 
L 130.591424 114.24164 
L 128.828364 114.250556 
L 127.787841 118.046867 
L 128.062188 123.370478 
L 129.365809 125.363878 
L 128.885487 130.106601 
L 127.2687 132.905758 
L 126.397064 135.237976 
L 124.981415 132.784727 
L 120.813869 137.397314 
L 117.94425 138.248594 
L 115.123476 136.053442 
L 114.670745 131.6926 
L 114.722089 122.400675 
L 116.631622 119.935482 
L 121.625788 116.762302 
L 125.172003 112.649114 
L 128.168176 107.005478 
L 131.573189 99.100042 
L 133.831721 95.900435 
L 137.156466 90.481998 
L 139.88723 88.301635 
L 142.162636 88.106511 
L 143.439394 84.465712 
L 145.839564 84.092177 
L 147.90886 82.730574 
L 152.838228 84.31805 
L 151.514943 85.859723 
L 153.80057 87.791101 
" style="fill:#d3d3d3;"/>
    <path clip-path="url(#pedae9faac6)" d="M 136.593478 49.245341 
L 136.160977 51.550889 
L 134.135865 52.476416 
L 131.804503 52.220698 
L 131.482623 51.174799 
L 130.431033 51.25193 
L 129.399669 49.562921 
L 131.335667 48.196237 
L 132.507346 48.953408 
L 132.928463 47.676282 
L 134.860521 48.259425 
L 136.593478 49.245341 
" style="fill:#d3d3d3;"/>
    <path clip-path="url(#pedae9faac6)" d="M 136.965787 58.112091 
L 135.415992 60.083271 
L 133.685974 59.456971 
L 134.084211 58.358219 
L 133.33187 57.207009 
L 134.871142 56.127643 
L 135.535564 57.505825 
L 136.965787 58.112091 
" style="fill:#d3d3d3;"/>
    <path clip-path="url(#pedae9faac6)" d="M 105.074876 29.894437 
L 105.2785 30.000601 
L 107.805009 32.549943 
L 108.614067 36.695598 
L 106.918736 37.529939 
L 105.031924 36.608024 
L 102.384734 35.223577 
L 102.117198 35.931173 
L 104.006137 36.734047 
L 104.609061 38.761743 
L 106.265119 38.303753 
L 105.894504 39.738261 
L 104.032852 41.371977 
L 106.209875 40.852384 
L 109.556223 40.705171 
L 110.86953 42.040918 
L 110.527212 43.712792 
L 106.88251 45.320788 
L 106.114358 45.986773 
L 103.780009 45.659334 
L 105.147043 46.520332 
L 102.983016 48.727477 
L 101.148126 50.727177 
L 98.970194 54.631419 
L 98.678522 57.392917 
L 97.307491 56.92379 
L 95.307267 57.337325 
L 95.808783 59.98071 
L 94.365311 63.083266 
L 93.191765 62.923489 
L 92.750095 66.567506 
L 90.428689 65.741319 
L 90.762242 67.751367 
L 89.731972 68.831742 
L 87.974503 68.634366 
L 86.553144 67.878917 
L 86.423831 70.933393 
L 85.521457 72.49866 
L 84.29042 69.909087 
L 83.165199 70.518429 
L 84.064618 72.193186 
L 84.243049 75.10464 
L 83.055212 78.170734 
L 80.560329 77.7329 
L 80.488234 75.896765 
L 80.364936 73.121659 
L 79.241648 75.670161 
L 76.737645 76.675425 
L 79.729749 78.609062 
L 81.266832 79.687888 
L 76.179009 80.934782 
L 71.07231 81.611144 
L 66.674395 80.383023 
L 65.3394 79.451872 
L 63.123158 79.786949 
L 58.696612 81.879613 
L 55.813875 81.947294 
L 105.074876 29.894437 
" style="fill:#d3d3d3;"/>
    <path clip-path="url(#pedae9faac6)" d="M 114.254736 172.780916 
L 115.443351 173.89308 
L 119.220359 174.768644 
L 117.795357 177.481062 
L 117.359602 180.331415 
L 116.588069 180.990396 
L 115.361606 180.569935 
L 115.405893 181.593857 
L 113.289939 183.751289 
L 113.155386 185.565302 
L 114.514453 185.003699 
L 115.397322 186.805925 
L 115.235086 187.934423 
L 116.008065 189.47441 
L 114.973952 190.655012 
L 115.590713 193.78723 
L 117.142536 194.352695 
L 116.754679 196.080798 
L 114.011102 198.236323 
L 108.276703 196.80874 
L 103.902793 197.753286 
L 103.356354 200.126029 
L 99.86528 200.294618 
L 96.73522 198.104136 
L 95.562359 198.828968 
L 90.401318 196.255787 
L 89.470638 194.529788 
L 91.311535 192.381326 
L 92.996373 184.540469 
L 90.810188 179.916849 
L 89.15946 177.565497 
L 85.373595 175.274752 
L 85.670391 172.336615 
L 89.206972 172.124246 
L 93.428196 173.898689 
L 93.318411 169.261764 
L 95.489851 171.353644 
L 101.909844 169.05124 
L 103.052746 165.862876 
L 105.343053 165.294615 
L 105.566356 166.740475 
L 106.738889 166.921529 
L 107.779043 168.638445 
L 109.421144 170.678425 
L 110.772089 170.464911 
L 112.929262 172.442863 
L 113.494745 172.825087 
L 114.254736 172.780916 
" style="fill:#ff0000;"/>
    <path clip-path="url(#pedae9faac6)" d="M 120.517289 200.447357 
L 122.44515 198.941717 
L 122.929102 202.378794 
L 121.909278 205.461671 
L 120.542554 204.629104 
L 119.890056 201.92417 
L 120.517289 200.447357 
" style="fill:#ff0000;"/>
    <path clip-path="url(#pedae9faac6)" d="M 62.878915 265.524861 
L 62.954941 264.119123 
L 68.590289 265.167314 
L 70.520188 267.009927 
L 62.878915 265.524861 
" style="fill:#d3d3d3;"/>
    <path clip-path="url(#pedae9faac6)" d="M 42.66663 260.573068 
L 43.728014 255.451672 
L 55.454248 258.734969 
L 56.575335 252.896281 
L 68.590289 265.167314 
L 62.954941 264.119123 
L 62.878915 265.524861 
L 42.66663 260.573068 
" style="fill:#d3d3d3;"/>
    <path clip-path="url(#pedae9faac6)" d="M 210.886417 225.474857 
L 210.670106 226.875905 
L 209.344997 226.747428 
L 209.377848 229.528222 
L 210.321291 229.680182 
L 209.629687 230.489454 
L 209.766193 231.545367 
L 211.169813 230.503397 
L 211.664407 231.964884 
L 211.675177 238.637684 
L 211.07409 237.755145 
L 207.716136 232.779797 
L 207.716122 232.779813 
L 207.716113 232.779801 
L 208.337627 231.202509 
L 208.053566 231.058996 
L 208.431702 228.980512 
L 208.285463 225.868139 
L 208.473032 224.741913 
L 208.55068 224.672041 
L 209.63029 224.310673 
L 209.731944 223.537764 
L 210.577378 223.187998 
L 211.085079 224.736047 
L 210.817104 225.470238 
L 210.886417 225.474857 
" style="fill:#ffa500;"/>
    <path clip-path="url(#pedae9faac6)" d="M 210.577378 223.187998 
L 209.731944 223.537764 
L 209.63029 224.310673 
L 208.55068 224.672041 
L 208.79133 221.16111 
L 209.564259 217.913516 
L 209.583187 217.759229 
L 211.054145 217.44842 
L 212.027992 218.759544 
L 210.73959 220.818696 
L 210.577378 223.187998 
" style="fill:#ffa500;"/>
    <path clip-path="url(#pedae9faac6)" d="M 211.169813 230.503397 
L 209.766193 231.545367 
L 209.629687 230.489454 
L 210.321291 229.680182 
L 209.377848 229.528222 
L 209.344997 226.747428 
L 210.670106 226.875905 
L 211.336658 229.215275 
L 211.169813 230.503397 
" style="fill:#d3d3d3;"/>
    <path clip-path="url(#pedae9faac6)" d="M 122.415523 249.451634 
L 120.97745 242.35577 
L 118.869336 240.726552 
L 118.856056 239.768834 
L 116.108888 237.340613 
L 115.890533 234.348089 
L 118.017658 232.194727 
L 118.866648 228.939126 
L 118.41849 225.139316 
L 119.120196 223.112168 
L 122.666322 221.553264 
L 124.928167 222.035141 
L 124.837429 224.049079 
L 127.583713 222.5627 
L 127.824101 223.324045 
L 126.212491 225.291297 
L 126.20303 227.130418 
L 127.354039 228.106368 
L 126.950362 231.547675 
L 124.75242 233.555471 
L 125.400496 235.713722 
L 127.15471 235.76759 
L 128.031303 237.639442 
L 129.338968 238.236635 
L 129.193453 241.278119 
L 127.522344 242.43824 
L 126.464337 243.714567 
L 124.074826 245.244763 
L 124.447522 246.878908 
L 124.142942 248.544516 
L 122.415523 249.451634 
" style="fill:#d3d3d3;"/>
    <path clip-path="url(#pedae9faac6)" d="M 56.575335 252.896281 
L 56.787718 252.164663 
L 56.835941 251.905709 
L 57.69807 247.318362 
L 63.864868 245.761245 
L 67.444531 245.913226 
L 70.467931 245.443131 
L 72.109637 243.749363 
L 76.391491 242.949789 
L 76.968003 240.080508 
L 78.999626 240.081658 
L 80.750224 238.889415 
L 85.307088 238.919203 
L 86.120344 237.482775 
L 85.329236 236.517212 
L 84.700851 232.190961 
L 84.819787 229.766604 
L 83.91953 227.049741 
L 87.355339 225.376638 
L 90.969642 225.182575 
L 93.210512 223.81468 
L 96.461866 222.977852 
L 102.018382 222.822351 
L 107.404274 222.920596 
L 109.008654 223.615976 
L 112.140203 222.216522 
L 115.600542 222.330155 
L 116.893257 223.298239 
L 119.120196 223.112168 
L 118.41849 225.139316 
L 118.866648 228.939126 
L 118.017658 232.194727 
L 115.890533 234.348089 
L 116.108888 237.340613 
L 118.856056 239.768834 
L 118.869336 240.726552 
L 120.97745 242.35577 
L 122.415523 249.451634 
L 123.553599 252.931786 
L 123.745374 254.758668 
L 123.10164 257.959767 
L 123.35934 259.748406 
L 122.887799 261.890523 
L 123.200813 264.351813 
L 121.723762 265.976132 
L 123.914937 268.8318 
L 124.054532 270.502467 
L 124.863358 271.814437 
L 70.520188 267.009927 
L 68.590289 265.167314 
L 56.575335 252.896281 
" style="fill:#ffa500;"/>
    <path clip-path="url(#pedae9faac6)" d="M 210.670106 226.875905 
L 210.886417 225.474857 
L 214.931335 225.707377 
L 219.893564 219.282935 
L 222.69379 223.387171 
L 222.27185 224.201226 
L 216.39951 228.57408 
L 220.815286 231.162389 
L 219.924382 232.217056 
L 219.764131 233.692067 
L 217.38478 235.144002 
L 216.980188 236.800562 
L 215.859353 238.48386 
L 211.936364 239.153704 
L 211.675177 238.637684 
L 211.664407 231.964884 
L 211.169813 230.503397 
L 211.336658 229.215275 
L 210.670106 226.875905 
" style="fill:#ffa500;"/>
    <path clip-path="url(#pedae9faac6)" d="M 222.69379 223.387171 
L 219.893564 219.282935 
L 225.403355 212.501118 
L 224.871789 207.452731 
L 223.559298 204.831433 
L 224.825818 203.180429 
L 225.414734 200.157348 
L 226.429938 198.99652 
L 229.983603 197.8704 
L 231.390957 198.319808 
L 232.501138 197.006965 
L 232.832755 197.315213 
L 244.700635 226.603613 
L 244.307676 226.771845 
L 232.536894 223.430836 
L 226.876031 222.838155 
L 222.69379 223.387171 
" style="fill:#ffa500;"/>
    <path clip-path="url(#pedae9faac6)" d="M 232.832755 197.315213 
L 232.501138 197.006965 
L 232.501097 197.006926 
L 229.674385 194.814586 
L 229.736909 193.390518 
L 227.03114 189.572384 
L 228.460752 187.567182 
L 228.700036 187.833179 
L 232.832755 197.315213 
" style="fill:#d3d3d3;"/>
    <path clip-path="url(#pedae9faac6)" d="M 210.886417 225.474857 
L 210.817104 225.470238 
L 211.085079 224.736047 
L 210.577378 223.187998 
L 210.73959 220.818696 
L 212.027992 218.759544 
L 211.054145 217.44842 
L 209.583187 217.759229 
L 208.405835 214.935384 
L 208.682422 213.090503 
L 209.247136 211.955134 
L 209.80482 210.818068 
L 209.29143 208.627118 
L 210.523093 209.000237 
L 213.497649 206.667462 
L 215.340453 206.749384 
L 217.800935 205.7351 
L 220.702103 202.873223 
L 222.312925 202.242972 
L 225.414734 200.157348 
L 224.825818 203.180429 
L 223.559298 204.831433 
L 224.871789 207.452731 
L 225.403355 212.501118 
L 219.893564 219.282935 
L 214.931335 225.707377 
L 210.886417 225.474857 
" style="fill:#d3d3d3;"/>
    <path clip-path="url(#pedae9faac6)" d="M 228.552028 187.499513 
L 228.460752 187.567182 
L 226.902295 187.033972 
L 224.460307 187.124912 
L 223.942735 185.188865 
L 222.914257 184.109186 
L 226.044747 181.906131 
L 228.552028 187.499513 
" style="fill:#ffa500;"/>
    <path clip-path="url(#pedae9faac6)" d="M 126.397064 135.237976 
L 127.2687 132.905758 
L 128.885487 130.106601 
L 129.365809 125.363878 
L 128.062188 123.370478 
L 127.787841 118.046867 
L 128.828364 114.250556 
L 130.591424 114.24164 
L 131.112242 112.622818 
L 130.39962 111.290107 
L 132.630388 105.506742 
L 133.838312 100.959144 
L 134.563855 98.034623 
L 136.022071 97.894442 
L 136.138066 95.641101 
L 139.02175 95.910357 
L 138.815911 93.282325 
L 139.680725 92.984976 
L 141.966938 94.589066 
L 144.830103 96.825683 
L 146.190257 102.853039 
L 147.066742 104.270412 
L 144.496687 105.917303 
L 143.390888 108.946231 
L 144.086766 111.324296 
L 141.820111 114.936948 
L 138.783909 118.802925 
L 138.050474 124.571529 
L 139.75621 127.238921 
L 141.930876 129.228974 
L 140.619695 133.954837 
L 138.558793 135.11497 
L 138.395851 141.91588 
L 137.471781 145.780774 
L 134.722727 145.593156 
L 133.640997 148.857313 
L 130.998981 149.172113 
L 130.127806 145.398729 
L 128.135736 140.892634 
L 126.397064 135.237976 
" style="fill:#ffa500;"/>
    <path clip-path="url(#pedae9faac6)" d="M 164.603679 140.914532 
L 167.152245 141.280686 
L 167.733928 142.161901 
L 168.741832 141.375106 
L 171.139865 141.676555 
L 171.909468 143.430443 
L 171.754176 144.618209 
L 173.92558 146.730776 
L 175.059517 147.15209 
L 175.143067 147.892882 
L 176.883081 148.087639 
L 177.86948 148.903188 
L 177.254654 150.034631 
L 175.363188 150.48293 
L 175.03138 150.980753 
L 175.966752 152.099965 
L 177.303183 154.401114 
L 177.303238 154.401107 
L 175.34977 155.248613 
L 174.869023 156.317843 
L 175.280244 158.319911 
L 174.216368 158.220463 
L 172.091809 159.014926 
L 171.215537 158.272488 
L 170.488665 159.194996 
L 169.433802 158.865738 
L 167.508304 159.266318 
L 164.582966 158.964595 
L 162.067386 159.198824 
L 160.204132 159.679695 
L 159.078364 161.019142 
L 157.934637 161.398619 
L 157.557276 159.642154 
L 156.468584 157.943592 
L 157.756433 156.862659 
L 157.464383 155.280704 
L 156.518935 153.898812 
L 156.082574 152.164614 
L 158.335764 151.75041 
L 160.52358 149.733286 
L 160.553168 147.391237 
L 162.101896 145.708366 
L 161.471902 143.997106 
L 162.65052 143.015988 
L 164.603679 140.914532 
" style="fill:#d3d3d3;"/>
    <path clip-path="url(#pedae9faac6)" d="M 177.303238 154.401107 
L 178.229005 154.281318 
L 178.542437 153.213507 
L 179.312767 153.177661 
L 181.597926 151.999188 
L 183.827522 153.654815 
L 183.509835 154.636438 
L 184.112368 155.759491 
L 186.058951 155.275334 
L 187.490007 156.626037 
L 187.70657 157.396821 
L 191.225097 157.595601 
L 192.818572 156.277558 
L 194.97484 157.45687 
L 196.346338 156.840827 
L 200.340641 156.557049 
L 200.83488 157.644096 
L 200.685631 160.035243 
L 202.080223 161.870796 
L 202.21341 163.291071 
L 199.940541 164.586112 
L 199.073146 166.17221 
L 199.643234 167.885711 
L 197.740209 169.000378 
L 196.496263 170.892126 
L 194.160901 171.999522 
L 192.412511 174.236154 
L 193.22935 176.244239 
L 192.792752 176.267991 
L 192.200721 175.629687 
L 191.304993 175.772411 
L 189.169619 175.583288 
L 188.773703 176.769773 
L 188.279982 176.470017 
L 183.872154 176.794448 
L 183.272378 175.402691 
L 180.959667 176.608578 
L 180.55364 179.037413 
L 179.214624 182.502947 
L 177.807781 182.164194 
L 176.67913 183.129653 
L 175.284172 182.718971 
L 175.869396 182.119003 
L 176.017142 180.65325 
L 176.446922 179.212752 
L 176.082344 178.561779 
L 176.563808 178.102167 
L 176.964322 178.573478 
L 178.571093 178.260977 
L 179.202031 177.77658 
L 178.600606 177.518963 
L 178.635256 176.885285 
L 177.449295 176.147392 
L 176.643966 174.617613 
L 175.523501 174.234506 
L 175.372311 172.85912 
L 173.930444 172.116054 
L 172.826087 172.244484 
L 170.620616 171.498161 
L 168.985961 172.299199 
L 168.495083 173.024038 
L 167.392895 173.274085 
L 166.931747 174.342254 
L 165.065843 175.140039 
L 164.284015 175.934077 
L 162.866979 175.215279 
L 161.168702 175.529157 
L 159.452535 175.392799 
L 158.453201 176.446081 
L 158.088815 175.413743 
L 156.443992 174.581602 
L 156.695381 172.89322 
L 157.245481 171.735155 
L 157.852229 171.867947 
L 156.880274 170.199236 
L 158.616312 166.481857 
L 159.781458 165.783255 
L 159.83779 164.619723 
L 157.934637 161.398619 
L 159.078364 161.019142 
L 160.204132 159.679695 
L 162.067386 159.198824 
L 164.582966 158.964595 
L 167.508304 159.266318 
L 169.433802 158.865738 
L 170.488665 159.194996 
L 171.215537 158.272488 
L 172.091809 159.014926 
L 174.216368 158.220463 
L 175.280244 158.319911 
L 174.869023 156.317843 
L 175.34977 155.248613 
L 177.303238 154.401107 
" style="fill:#ffa500;"/>
    <path clip-path="url(#pedae9faac6)" d="M 156.082574 152.164614 
L 156.518935 153.898812 
L 157.464383 155.280704 
L 157.756433 156.862659 
L 156.468584 157.943592 
L 157.557276 159.642154 
L 157.934637 161.398619 
L 159.83779 164.619723 
L 159.781458 165.783255 
L 158.616312 166.481857 
L 156.880274 170.199236 
L 157.852229 171.867947 
L 157.245481 171.735155 
L 154.534388 170.616208 
L 152.75519 171.467354 
L 151.47149 171.237167 
L 150.051199 172.305561 
L 148.557823 171.062204 
L 147.556752 171.737863 
L 147.381226 171.514341 
L 145.962116 169.685978 
L 144.022125 169.654544 
L 143.649704 168.426147 
L 141.853026 168.151402 
L 141.565835 169.221946 
L 140.100517 168.515516 
L 140.166763 167.398594 
L 138.23747 167.202349 
L 136.943989 165.996461 
L 135.746821 163.500117 
L 135.851812 162.102962 
L 135.108253 159.992341 
L 134.139933 158.612039 
L 134.750851 157.500344 
L 134.070286 155.488328 
L 135.617036 154.208439 
L 139.134747 152.06875 
L 141.922693 150.428547 
L 144.307271 150.8436 
L 144.601875 151.797781 
L 146.850996 151.561416 
L 149.778374 151.603868 
L 154.029377 150.839564 
L 155.293606 151.047826 
L 156.082574 152.164614 
" style="fill:#ffa500;"/>
    <path clip-path="url(#pedae9faac6)" d="M 143.016685 177.540704 
L 142.962359 179.196302 
L 141.440949 179.340923 
L 142.039163 180.163324 
L 141.347148 182.820125 
L 140.875896 183.539499 
L 138.468466 183.821067 
L 137.128565 184.822725 
L 134.819229 184.642329 
L 130.81822 183.770902 
L 130.1617 182.393086 
L 127.458664 183.151936 
L 127.148708 183.920666 
L 125.46989 183.366425 
L 124.062562 183.260805 
L 122.820103 182.524494 
L 123.245051 181.543631 
L 123.143001 180.830122 
L 123.965865 180.611412 
L 125.349238 181.724373 
L 125.731453 180.661595 
L 128.135821 180.800895 
L 130.063306 180.033686 
L 131.368723 180.11507 
L 132.24714 180.905401 
L 132.47415 180.212828 
L 131.989607 177.611379 
L 132.931271 177.061421 
L 133.785933 175.166057 
L 135.828506 176.352042 
L 137.220425 174.616328 
L 138.129157 174.252503 
L 140.273485 175.318894 
L 141.500026 175.004759 
L 142.789707 175.649305 
L 142.622995 176.177978 
L 143.016685 177.540704 
" style="fill:#ffa500;"/>
    <path clip-path="url(#pedae9faac6)" d="M 156.443992 174.581602 
L 158.088815 175.413743 
L 158.453201 176.446081 
L 156.960651 177.556422 
L 156.106952 180.460049 
L 154.853723 183.413424 
L 152.744032 184.483867 
L 150.993268 184.539505 
L 148.98984 185.853879 
L 148.989806 185.853905 
L 148.012976 186.572306 
L 145.625731 186.054552 
L 143.385603 184.542846 
L 142.4629 184.129943 
L 141.813249 182.825106 
L 141.347148 182.820125 
L 142.039163 180.163324 
L 141.440949 179.340923 
L 142.962359 179.196302 
L 143.016685 177.540704 
L 144.481043 178.431338 
L 145.518094 178.764079 
L 147.722628 178.019987 
L 147.845605 177.191817 
L 148.89329 176.943637 
L 150.113677 176.157051 
L 150.434257 176.374031 
L 151.61606 175.70528 
L 152.107211 174.679165 
L 152.936823 174.310152 
L 155.945692 175.08095 
L 156.443992 174.581602 
" style="fill:#ffa500;"/>
    <path clip-path="url(#pedae9faac6)" d="M 168.495083 173.024038 
L 168.985961 172.299199 
L 170.620616 171.498161 
L 172.826087 172.244484 
L 173.930444 172.116054 
L 175.372311 172.85912 
L 175.523501 174.234506 
L 176.643966 174.617613 
L 177.449295 176.147392 
L 178.635256 176.885285 
L 178.600606 177.518963 
L 179.202031 177.77658 
L 178.571093 178.260977 
L 176.964322 178.573478 
L 176.563808 178.102167 
L 176.082344 178.561779 
L 176.446922 179.212752 
L 176.017142 180.65325 
L 175.869396 182.119003 
L 175.284172 182.718971 
L 174.371668 181.051895 
L 174.258372 179.305911 
L 173.760143 177.606211 
L 171.675208 175.651368 
L 170.454936 174.196172 
L 169.377376 173.222386 
L 168.495083 173.024038 
" style="fill:#d3d3d3;"/>
    <path clip-path="url(#pedae9faac6)" d="M 175.284172 182.718971 
L 176.67913 183.129653 
L 177.807781 182.164194 
L 179.214624 182.502947 
L 179.535815 183.492992 
L 178.414037 184.691352 
L 177.486133 184.544508 
L 177.843797 189.46823 
L 176.08916 189.472226 
L 173.718078 188.539588 
L 170.590429 190.210373 
L 169.383472 191.519261 
L 165.149328 192.156638 
L 162.843651 191.94784 
L 161.78264 192.435216 
L 160.695226 190.947474 
L 160.063449 190.344605 
L 160.612747 189.562975 
L 159.835422 189.187942 
L 159.086092 190.225621 
L 157.258557 189.336616 
L 156.794938 187.732462 
L 154.951688 187.055559 
L 154.461594 185.834816 
L 152.744032 184.483867 
L 154.853723 183.413424 
L 156.106952 180.460049 
L 156.960651 177.556422 
L 158.453201 176.446081 
L 159.452535 175.392799 
L 161.168702 175.529157 
L 162.866979 175.215279 
L 164.284015 175.934077 
L 165.065843 175.140039 
L 166.931747 174.342254 
L 167.392895 173.274085 
L 168.495083 173.024038 
L 169.377376 173.222386 
L 170.454936 174.196172 
L 171.675208 175.651368 
L 173.760143 177.606211 
L 174.258372 179.305911 
L 174.371668 181.051895 
L 175.284172 182.718971 
" style="fill:#ffa500;"/>
    <path clip-path="url(#pedae9faac6)" d="M 161.471902 143.997106 
L 162.101896 145.708366 
L 160.553168 147.391237 
L 160.52358 149.733286 
L 158.335764 151.75041 
L 156.082574 152.164614 
L 155.293606 151.047826 
L 154.029377 150.839564 
L 153.662007 149.859261 
L 153.709279 148.728684 
L 152.589342 148.275841 
L 150.091068 147.973297 
L 149.076512 144.701903 
L 151.406024 143.067172 
L 155.138879 142.64222 
L 157.205754 141.813771 
L 157.690583 142.569454 
L 158.912659 142.569808 
L 161.471902 143.997106 
" style="fill:#d3d3d3;"/>
    <path clip-path="url(#pedae9faac6)" d="M 161.377379 136.289599 
L 162.624116 136.935518 
L 163.302996 138.78562 
L 164.603679 140.914532 
L 162.65052 143.015988 
L 161.471902 143.997106 
L 158.912659 142.569808 
L 157.690583 142.569454 
L 157.205754 141.813771 
L 155.138879 142.64222 
L 151.406024 143.067172 
L 149.076512 144.701903 
L 148.672484 141.693547 
L 149.322215 139.02581 
L 151.090025 137.327229 
L 153.347314 139.97716 
L 155.058353 139.56401 
L 154.833175 136.448566 
L 156.465751 135.376207 
L 157.490986 135.657603 
L 159.642415 136.701777 
L 161.377379 136.289599 
" style="fill:#ffa500;"/>
    <path clip-path="url(#pedae9faac6)" d="M 160.726668 128.111184 
L 160.726658 128.111201 
L 161.210765 128.713697 
L 160.385267 131.330407 
L 161.94953 134.822802 
L 161.377379 136.289599 
L 159.642415 136.701777 
L 157.490986 135.657603 
L 156.465751 135.376207 
L 154.833175 136.448566 
L 154.579968 134.0702 
L 153.922704 134.722805 
L 152.322658 133.575695 
L 151.692372 131.33759 
L 154.01199 129.72778 
L 156.395144 128.605992 
L 158.711241 128.743684 
L 160.726627 128.111133 
L 160.726668 128.111184 
" style="fill:#ffa500;"/>
    <path clip-path="url(#pedae9faac6)" d="M 134.070286 155.488328 
L 134.750851 157.500344 
L 134.139933 158.612039 
L 135.108253 159.992341 
L 135.851812 162.102962 
L 135.746821 163.500117 
L 136.943989 165.996461 
L 135.842589 166.489581 
L 135.147522 166.068502 
L 134.555933 166.869592 
L 132.768126 167.740296 
L 131.861439 168.782673 
L 130.024009 169.724408 
L 130.514101 170.904951 
L 130.845914 172.590809 
L 132.219689 173.506164 
L 133.785933 175.166057 
L 132.931271 177.061421 
L 131.989607 177.611379 
L 132.47415 180.212828 
L 132.24714 180.905401 
L 131.368723 180.11507 
L 130.063306 180.033686 
L 128.135821 180.800895 
L 125.731453 180.661595 
L 125.349238 181.724373 
L 123.965865 180.611412 
L 123.143001 180.830122 
L 120.246815 179.564545 
L 119.671473 180.425437 
L 117.359602 180.331415 
L 117.795357 177.481062 
L 119.220359 174.768644 
L 115.443351 173.89308 
L 114.254736 172.780916 
L 114.491304 171.027327 
L 114.021671 170.092925 
L 114.45616 167.393829 
L 114.259294 163.160295 
L 115.754027 163.234776 
L 116.450598 161.749838 
L 117.213935 158.093565 
L 116.8207 156.715269 
L 117.323617 155.88301 
L 119.325389 155.732678 
L 119.744439 156.631824 
L 121.405893 154.682668 
L 120.894296 153.164543 
L 120.833997 150.880678 
L 122.579772 151.43795 
L 124.067923 150.833519 
L 124.107528 152.388754 
L 126.482694 153.311928 
L 126.47652 154.740425 
L 128.866331 153.936717 
L 130.153712 152.794075 
L 132.880186 154.26843 
L 134.070286 155.488328 
" style="fill:#ff0000;"/>
    <path clip-path="url(#pedae9faac6)" d="M 160.695226 190.947474 
L 161.78264 192.435216 
L 162.843651 191.94784 
L 165.149328 192.156638 
L 169.383472 191.519261 
L 170.590429 190.210373 
L 173.718078 188.539588 
L 176.08916 189.472226 
L 177.843797 189.46823 
L 176.752247 191.460225 
L 176.339786 194.520583 
L 177.776402 196.530365 
L 175.154365 196.603022 
L 172.431548 198.511473 
L 172.7915 200.478009 
L 170.165273 201.419424 
L 167.819823 200.459533 
L 165.627655 201.99616 
L 163.399534 202.276613 
L 162.769939 199.69539 
L 161.091886 198.674651 
L 161.488746 198.034364 
L 161.096991 197.616305 
L 161.390954 196.272125 
L 162.299394 194.842067 
L 160.620885 193.372352 
L 160.134516 191.966803 
L 160.695226 190.947474 
" style="fill:#ff0000;"/>
    <path clip-path="url(#pedae9faac6)" d="M 177.936964 224.019095 
L 177.745712 225.260762 
L 173.104133 226.549709 
L 173.028053 225.895984 
L 168.919193 225.869419 
L 169.26084 224.090422 
L 171.251162 225.088275 
L 173.745045 224.376985 
L 176.209532 224.164903 
L 176.254226 224.863023 
L 177.936964 224.019095 
" style="fill:#ffa500;"/>
    <path clip-path="url(#pedae9faac6)" d="M 163.399534 202.276613 
L 165.627655 201.99616 
L 167.819823 200.459533 
L 170.165273 201.419424 
L 172.7915 200.478009 
L 172.431548 198.511473 
L 174.076599 199.235524 
L 173.660439 201.899826 
L 173.039403 202.495496 
L 171.196659 202.770034 
L 169.566142 202.716512 
L 166.109774 204.441243 
L 168.587564 206.265324 
L 167.153047 207.200958 
L 165.455005 207.513972 
L 163.521798 205.759005 
L 163.086173 206.723948 
L 164.134004 208.969872 
L 165.967341 210.55519 
L 164.937237 211.624683 
L 166.957763 213.139042 
L 168.69166 213.999478 
L 169.108652 216.21646 
L 166.025009 215.696394 
L 167.271862 217.543962 
L 165.318506 218.306809 
L 167.05839 221.578127 
L 164.925882 221.988425 
L 162.046361 220.691129 
L 160.423752 217.710836 
L 159.522127 215.160503 
L 158.062131 213.516957 
L 156.182572 211.477616 
L 155.834603 210.376201 
L 157.024517 208.254804 
L 157.041284 206.9394 
L 157.954767 206.221432 
L 157.875488 205.170244 
L 159.803891 204.519858 
L 160.825852 203.471549 
L 162.465114 203.279954 
L 162.850324 202.506198 
L 163.399534 202.276613 
" style="fill:#ffa500;"/>
    <path clip-path="url(#pedae9faac6)" d="M 232.501138 197.006965 
L 231.390957 198.319808 
L 229.983603 197.8704 
L 226.429938 198.99652 
L 225.414734 200.157348 
L 222.312925 202.242972 
L 220.702103 202.873223 
L 217.800935 205.7351 
L 215.340453 206.749384 
L 213.497649 206.667462 
L 210.523093 209.000237 
L 209.29143 208.627118 
L 209.80482 210.818068 
L 209.247136 211.955134 
L 208.682422 213.090503 
L 207.017531 211.758469 
L 207.733142 209.906959 
L 205.969443 210.895536 
L 203.142305 210.895476 
L 201.660483 213.814474 
L 197.049997 215.741222 
L 193.981741 214.420266 
L 190.583089 215.250714 
L 190.247407 217.061846 
L 188.173205 218.109709 
L 184.652151 216.821074 
L 181.218772 217.728946 
L 178.559825 214.268549 
L 175.851368 212.600973 
L 176.747596 209.216843 
L 174.435175 207.7697 
L 177.021941 203.260211 
L 181.583147 201.980345 
L 182.12482 198.689542 
L 187.830277 197.665815 
L 190.622616 194.107919 
L 193.633132 191.957874 
L 198.286299 190.28817 
L 204.098113 191.188407 
L 208.656888 191.083984 
L 211.706017 189.159233 
L 214.229183 188.471283 
L 216.700843 185.064017 
L 219.52342 183.540129 
L 222.914257 184.109186 
L 223.942735 185.188865 
L 224.460307 187.124912 
L 226.902295 187.033972 
L 228.460752 187.567182 
L 227.03114 189.572384 
L 229.736909 193.390518 
L 229.674385 194.814586 
L 232.501097 197.006926 
L 232.501138 197.006965 
" style="fill:#ffa500;"/>
    <path clip-path="url(#pedae9faac6)" d="M 172.431548 198.511473 
L 175.154365 196.603022 
L 177.776402 196.530365 
L 178.463034 197.951616 
L 181.312652 198.56939 
L 181.002393 199.664708 
L 177.542733 200.748096 
L 176.535226 202.259786 
L 174.468087 204.940708 
L 173.158884 203.316009 
L 173.039403 202.495496 
L 173.660439 201.899826 
L 174.076599 199.235524 
L 172.431548 198.511473 
" style="fill:#ffa500;"/>
    <path clip-path="url(#pedae9faac6)" d="M 157.875488 205.170244 
L 157.954767 206.221432 
L 157.041284 206.9394 
L 157.024517 208.254804 
L 155.834603 210.376201 
L 155.275605 210.168475 
L 155.1089 209.303313 
L 153.251032 208.188202 
L 152.769698 206.327454 
L 152.714454 203.582162 
L 152.980062 202.295655 
L 152.403759 201.73222 
L 152.403756 201.732208 
L 152.056904 200.490782 
L 153.107197 198.367222 
L 153.385846 199.091475 
L 154.136203 198.633649 
L 154.900733 199.615238 
L 155.661701 199.923657 
L 156.050172 201.335755 
L 156.050177 201.335774 
L 155.846018 202.741203 
L 156.493653 204.384475 
L 157.875488 205.170244 
" style="fill:#d3d3d3;"/>
    <path clip-path="url(#pedae9faac6)" d="M 142.4629 184.129943 
L 143.385603 184.542846 
L 145.625731 186.054552 
L 148.012976 186.572306 
L 148.989806 185.853905 
L 149.847758 187.3178 
L 150.876142 188.343324 
L 149.963863 189.979295 
L 148.58233 189.247669 
L 146.629481 189.519501 
L 144.131462 189.099411 
L 142.81626 189.308528 
L 142.26913 190.191759 
L 141.178299 189.356783 
L 140.707019 191.064892 
L 142.25333 192.822718 
L 142.978423 194.008716 
L 144.438089 195.382105 
L 145.628179 196.160695 
L 146.890444 197.717672 
L 149.65064 198.944572 
L 149.397103 199.65907 
L 149.397101 199.659074 
L 146.472538 198.479459 
L 144.637508 197.206711 
L 141.864025 196.250579 
L 139.214155 193.489304 
L 139.776297 193.149132 
L 138.356506 191.555811 
L 138.218443 190.207348 
L 136.354323 189.687772 
L 135.571342 191.465603 
L 134.663622 190.166725 
L 134.66186 188.771629 
L 134.759587 188.701775 
L 136.736638 188.73119 
L 137.214361 188.023518 
L 138.214001 188.616181 
L 139.327688 188.617349 
L 139.240574 187.498695 
L 140.187265 187.01645 
L 140.339223 185.377553 
L 142.4629 184.129943 
" style="fill:#ffa500;"/>
    <path clip-path="url(#pedae9faac6)" d="M 123.143001 180.830122 
L 123.245051 181.543631 
L 122.820103 182.524494 
L 124.062562 183.260805 
L 125.46989 183.366425 
L 125.258868 185.01409 
L 124.033626 185.693736 
L 121.975667 185.178163 
L 121.351582 186.789733 
L 120.014163 186.894479 
L 119.542025 186.247887 
L 117.935552 187.56753 
L 116.573046 187.712998 
L 115.397322 186.805925 
L 114.514453 185.003699 
L 113.155386 185.565302 
L 113.289939 183.751289 
L 115.405893 181.593857 
L 115.361606 180.569935 
L 116.588069 180.990396 
L 117.359602 180.331415 
L 119.671473 180.425437 
L 120.246815 179.564545 
L 123.143001 180.830122 
" style="fill:#ffa500;"/>
    <path clip-path="url(#pedae9faac6)" d="M 114.021671 170.092925 
L 114.491304 171.027327 
L 114.254736 172.780916 
L 113.494745 172.825087 
L 112.929262 172.442863 
L 113.340185 170.206903 
L 114.021671 170.092925 
" style="fill:#ffa500;"/>
    <path clip-path="url(#pedae9faac6)" d="M 114.45616 167.393829 
L 114.021671 170.092925 
L 113.340185 170.206903 
L 112.929262 172.442863 
L 110.772089 170.464911 
L 109.421144 170.678425 
L 107.779043 168.638445 
L 106.738889 166.921529 
L 105.566356 166.740475 
L 105.343053 165.294615 
L 107.432215 164.700068 
L 107.432315 164.700094 
L 107.432206 164.700171 
L 109.243214 165.174505 
L 111.632384 164.515896 
L 113.113489 166.376781 
L 114.45616 167.393829 
" style="fill:#d3d3d3;"/>
    <path clip-path="url(#pedae9faac6)" d="M 116.8207 156.715269 
L 117.213935 158.093565 
L 116.450598 161.749838 
L 115.754027 163.234776 
L 114.259294 163.160295 
L 114.45616 167.393829 
L 113.113489 166.376781 
L 111.632384 164.515896 
L 109.243214 165.174505 
L 107.432206 164.700171 
L 107.432315 164.700094 
L 108.817964 163.712046 
L 111.435348 157.977345 
L 114.834532 156.505225 
L 116.8207 156.715269 
" style="fill:#ffa500;"/>
    <path clip-path="url(#pedae9faac6)" d="M 67.588328 196.264691 
L 68.875758 195.541759 
L 70.189507 195.268775 
L 70.482174 197.366931 
L 72.209769 197.778132 
L 72.817661 197.400415 
L 74.493384 197.930065 
L 74.910668 200.086026 
L 73.323724 200.842494 
L 72.649601 203.897389 
L 72.042475 204.360276 
L 71.535665 206.186717 
L 70.159055 206.204792 
L 70.886721 208.838546 
L 69.504639 211.216744 
L 70.333602 212.627512 
L 69.689875 213.594895 
L 68.230046 214.794189 
L 68.22429 216.150785 
L 66.747267 216.867112 
L 65.204418 215.915918 
L 63.488823 215.940825 
L 64.645816 213.008355 
L 64.893749 210.534736 
L 63.600931 209.82155 
L 63.214888 208.152273 
L 64.059045 205.662961 
L 65.592269 204.559176 
L 66.172323 203.03511 
L 67.339105 200.843962 
L 67.659085 199.170581 
L 67.40329 197.615725 
L 67.588328 196.264691 
" style="fill:#ffa500;"/>
    <path clip-path="url(#pedae9faac6)" d="M 68.22429 216.150785 
L 68.230046 214.794189 
L 69.689875 213.594895 
L 70.333602 212.627512 
L 69.504639 211.216744 
L 70.886721 208.838546 
L 70.159055 206.204792 
L 71.535665 206.186717 
L 72.042475 204.360276 
L 72.649601 203.897389 
L 73.323724 200.842494 
L 74.910668 200.086026 
L 74.493384 197.930065 
L 72.817661 197.400415 
L 72.209769 197.778132 
L 70.482174 197.366931 
L 70.189507 195.268775 
L 68.875758 195.541759 
L 67.588328 196.264691 
L 68.399819 193.517984 
L 67.645136 191.515228 
L 72.327807 189.718101 
L 75.640259 191.250504 
L 79.474737 192.064303 
L 82.398493 193.354717 
L 84.825003 193.59796 
L 89.470638 194.529788 
L 90.401318 196.255787 
L 95.562359 198.828968 
L 96.73522 198.104136 
L 99.86528 200.294618 
L 103.356354 200.126029 
L 103.315438 202.458806 
L 100.21849 204.831972 
L 96.250551 205.232576 
L 95.828812 206.5371 
L 93.693261 208.50078 
L 92.110878 211.571933 
L 93.054538 214.000432 
L 91.022644 215.524527 
L 90.016674 218.00265 
L 87.511197 218.440857 
L 84.826999 221.125791 
L 80.7428 220.499955 
L 77.703614 219.865818 
L 75.461005 220.864396 
L 73.972382 222.101185 
L 72.457529 221.450727 
L 71.518624 219.874297 
L 71.049123 217.424006 
L 68.22429 216.150785 
" style="fill:#ffa500;"/>
    <path clip-path="url(#pedae9faac6)" d="M 86.081857 151.026472 
L 85.823477 153.92738 
L 83.218998 157.02818 
L 78.389429 158.285081 
L 75.155955 156.768713 
L 78.195017 153.229171 
L 78.088365 148.930685 
L 82.000989 146.709678 
L 84.165898 145.314125 
L 84.09948 147.529655 
L 83.104533 149.514831 
L 84.533988 149.807755 
L 86.081857 151.026472 
" style="fill:#ff0000;"/>
    <path clip-path="url(#pedae9faac6)" d="M 125.46989 183.366425 
L 127.148708 183.920666 
L 127.458664 183.151936 
L 130.1617 182.393086 
L 130.81822 183.770902 
L 134.819229 184.642329 
L 134.613127 186.633168 
L 135.370262 188.305868 
L 133.10009 187.828388 
L 130.852989 189.336358 
L 131.070372 191.322298 
L 130.753035 192.475527 
L 131.762283 194.485565 
L 134.570833 196.391625 
L 136.207852 199.626051 
L 139.710102 202.645603 
L 142.05916 202.448178 
L 142.85686 203.271765 
L 142.070292 204.134598 
L 144.8928 205.348958 
L 147.229356 206.342906 
L 150.05017 208.143206 
L 150.443974 208.850636 
L 150.011997 210.33873 
L 148.121211 208.662428 
L 145.395296 208.264799 
L 144.304148 210.955914 
L 146.671781 212.230057 
L 146.476878 214.340936 
L 145.182751 214.69503 
L 143.747969 218.247877 
L 142.438937 218.656914 
L 142.369878 217.439767 
L 142.86961 215.256264 
L 143.493134 214.352041 
L 142.107995 212.13909 
L 141.025918 210.198583 
L 139.711656 209.789786 
L 138.701684 208.125842 
L 136.693521 207.51402 
L 135.297696 205.975528 
L 133.036603 205.813503 
L 130.613205 204.086598 
L 127.811699 201.542116 
L 125.764532 199.258403 
L 124.831104 195.301596 
L 123.384447 194.83454 
L 121.039609 193.489064 
L 119.699245 194.006906 
L 117.976487 195.825233 
L 116.754679 196.080798 
L 117.142536 194.352695 
L 115.590713 193.78723 
L 114.973952 190.655012 
L 116.008065 189.47441 
L 115.235086 187.934423 
L 115.397322 186.805925 
L 116.573046 187.712998 
L 117.935552 187.56753 
L 119.542025 186.247887 
L 120.014163 186.894479 
L 121.351582 186.789733 
L 121.975667 185.178163 
L 124.033626 185.693736 
L 125.258868 185.01409 
L 125.46989 183.366425 
" style="fill:#ffa500;"/>
    <path clip-path="url(#pedae9faac6)" d="M 139.437994 217.922978 
L 141.832737 217.412987 
L 140.877272 220.624355 
L 141.434904 221.823059 
L 140.877489 223.912481 
L 138.312013 222.56827 
L 136.64504 222.226754 
L 132.06858 220.387141 
L 132.456868 218.327507 
L 136.206127 218.537503 
L 139.437994 217.922978 
" style="fill:#ffa500;"/>
    <path clip-path="url(#pedae9faac6)" d="M 120.300509 207.359532 
L 121.842757 206.141002 
L 123.663474 208.991159 
L 123.209871 214.271571 
L 121.78284 214.00932 
L 120.483023 215.324713 
L 119.307864 214.244968 
L 119.275177 209.425413 
L 118.621963 207.124819 
L 120.300509 207.359532 
" style="fill:#ffa500;"/>
    <path clip-path="url(#pedae9faac6)" d="M 124.067923 150.833519 
L 122.579772 151.43795 
L 120.833997 150.880678 
L 119.953289 148.62624 
L 119.996417 144.512424 
L 120.394519 143.436079 
L 121.053967 142.243458 
L 122.988416 142.021212 
L 123.760886 140.9158 
L 125.500078 139.776921 
L 125.443345 141.846066 
L 124.800384 143.159946 
L 125.071137 144.285384 
L 126.284139 144.883534 
L 125.753422 146.407274 
L 125.080117 145.975069 
L 123.447873 148.872385 
L 124.067923 150.833519 
" style="fill:#ffa500;"/>
    <path clip-path="url(#pedae9faac6)" d="M 129.585536 146.205434 
L 130.380975 148.19645 
L 129.110369 151.500028 
L 126.642871 149.280058 
L 126.301047 147.614226 
L 129.585536 146.205434 
" style="fill:#ffa500;"/>
    <path clip-path="url(#pedae9faac6)" d="M 86.081857 151.026472 
L 84.533988 149.807755 
L 83.104533 149.514831 
L 84.09948 147.529655 
L 84.165898 145.314125 
L 86.07589 145.609006 
L 87.926321 148.597008 
L 86.081857 151.026472 
" style="fill:#d3d3d3;"/>
    <path clip-path="url(#pedae9faac6)" d="M 92.95193 154.349372 
L 92.955984 154.350552 
L 93.724355 152.109772 
L 92.639033 149.379184 
L 92.614839 149.316706 
L 89.989061 148.065246 
L 89.679495 146.882801 
L 90.872768 145.29036 
L 90.376178 144.048735 
L 88.76619 145.653135 
L 89.496409 141.827379 
L 88.870064 139.573219 
L 90.595679 135.684018 
L 92.933958 132.846157 
L 94.506999 133.501239 
L 97.061646 133.651442 
L 93.970425 137.500129 
L 96.236665 137.374324 
L 98.557132 137.807366 
L 97.425322 140.946738 
L 94.800175 144.14926 
L 97.050294 144.810511 
L 97.154614 145.2581 
L 98.398243 150.279899 
L 99.882064 151.158166 
L 100.680162 155.908369 
L 101.149716 157.577553 
L 103.982079 158.700974 
L 103.388212 161.225457 
L 101.991447 162.247444 
L 102.73609 164.436119 
L 100.216388 166.24918 
L 96.846122 165.741525 
L 92.380164 166.145726 
L 91.343029 165.157113 
L 89.339978 166.709255 
L 87.092671 165.803842 
L 85.012992 166.946441 
L 83.838778 165.868672 
L 88.353114 162.484434 
L 90.726683 162.054949 
L 90.707894 162.047997 
L 87.002623 160.629031 
L 86.644687 158.911395 
L 89.422007 158.206928 
L 88.542315 155.809883 
L 89.526304 153.312857 
L 92.95193 154.349372 
" style="fill:#d3d3d3;"/>
    <path clip-path="url(#pedae9faac6)" d="M 85.382085 97.799728 
L 84.044698 100.094626 
L 84.801077 103.312272 
L 81.576355 105.41668 
L 75.78124 106.081962 
L 74.064167 106.143911 
L 72.190712 104.634417 
L 68.377211 101.315878 
L 70.756444 100.506634 
L 68.43185 97.037148 
L 71.45787 97.740475 
L 71.966449 96.655673 
L 69.372115 94.196458 
L 71.677346 92.426843 
L 74.121761 93.033728 
L 75.086117 96.597643 
L 78.320255 95.666315 
L 79.692676 97.529026 
L 83.012252 96.571688 
L 85.382085 97.799728 
" style="fill:#d3d3d3;"/>
    <path clip-path="url(#pedae9faac6)" d="M 228.700036 187.833179 
L 228.460752 187.567182 
L 228.552028 187.499513 
L 228.700036 187.833179 
" style="fill:#d3d3d3;"/>
    <path clip-path="url(#pedae9faac6)" d="M 209.528316 179.845034 
L 209.677883 179.259526 
L 212.182244 178.911079 
L 216.327794 177.722881 
L 220.689369 177.766559 
L 221.457699 178.225155 
L 222.78725 176.841002 
L 223.662375 176.690683 
L 226.044747 181.906131 
L 222.914257 184.109186 
L 219.52342 183.540129 
L 216.700843 185.064017 
L 216.4517 183.278918 
L 214.729231 181.032897 
L 212.619032 180.349513 
L 210.963645 180.572605 
L 209.528316 179.845034 
" style="fill:#d3d3d3;"/>
    <path clip-path="url(#pedae9faac6)" d="M 134.819229 184.642329 
L 137.128565 184.822725 
L 138.468466 183.821067 
L 140.875896 183.539499 
L 141.347148 182.820125 
L 141.813249 182.825106 
L 142.4629 184.129943 
L 140.339223 185.377553 
L 140.187265 187.01645 
L 139.240574 187.498695 
L 139.327688 188.617349 
L 138.214001 188.616181 
L 137.214361 188.023518 
L 136.736638 188.73119 
L 134.759587 188.701775 
L 135.370262 188.305868 
L 134.613127 186.633168 
L 134.819229 184.642329 
" style="fill:#ffa500;"/>
    <path clip-path="url(#pedae9faac6)" d="M 150.984408 90.704363 
L 151.602761 93.451861 
L 154.641282 95.365296 
L 154.185413 98.660921 
L 157.387107 102.501759 
L 157.356653 106.117036 
L 159.7652 108.534787 
L 159.8766 111.24919 
L 163.307286 113.089273 
L 163.300622 115.254991 
L 162.345216 117.989277 
L 159.801756 124.058961 
L 159.80176 124.058964 
L 159.801755 124.058976 
L 156.386911 125.24008 
L 153.287794 127.441943 
L 150.235314 128.907271 
L 148.680846 126.953583 
L 146.553283 125.972245 
L 146.302449 121.995027 
L 144.778036 118.566137 
L 145.243416 116.118066 
L 146.394041 113.355956 
L 149.413893 108.314337 
L 150.333037 107.250477 
L 149.758045 105.63647 
L 147.066742 104.270412 
L 146.190257 102.853039 
L 144.830103 96.825683 
L 141.966938 94.589066 
L 139.680725 92.984976 
L 140.349205 91.807838 
L 142.340486 93.607911 
L 144.18037 93.053048 
L 145.946719 93.671309 
L 146.878474 91.642695 
L 146.808773 88.639741 
L 148.531393 86.801202 
L 150.721658 87.85065 
L 150.984408 90.704363 
" style="fill:#ffa500;"/>
    <path clip-path="url(#pedae9faac6)" d="M 157.245481 171.735155 
L 156.695381 172.89322 
L 156.443992 174.581602 
L 155.945692 175.08095 
L 152.936823 174.310152 
L 152.107211 174.679165 
L 151.61606 175.70528 
L 150.434257 176.374031 
L 150.113677 176.157051 
L 148.89329 176.943637 
L 147.845605 177.191817 
L 147.722628 178.019987 
L 145.518094 178.764079 
L 144.481043 178.431338 
L 143.016685 177.540704 
L 142.622995 176.177978 
L 142.789707 175.649305 
L 143.082532 174.732272 
L 144.259622 174.683296 
L 145.117834 174.174422 
L 145.149693 173.794533 
L 145.632464 173.549497 
L 145.704949 172.62013 
L 146.285046 172.378284 
L 146.606812 171.611541 
L 147.381226 171.514341 
L 147.556752 171.737863 
L 148.557823 171.062204 
L 150.051199 172.305561 
L 151.47149 171.237167 
L 152.75519 171.467354 
L 154.534388 170.616208 
L 157.245481 171.735155 
" style="fill:#ffa500;"/>
    <path clip-path="url(#pedae9faac6)" d="M 136.943989 165.996461 
L 138.23747 167.202349 
L 140.166763 167.398594 
L 140.100517 168.515516 
L 141.565835 169.221946 
L 141.853026 168.151402 
L 143.649704 168.426147 
L 144.022125 169.654544 
L 145.962116 169.685978 
L 147.381226 171.514341 
L 146.606812 171.611541 
L 146.285046 172.378284 
L 145.704949 172.62013 
L 145.632464 173.549497 
L 145.149693 173.794533 
L 145.117834 174.174422 
L 144.259622 174.683296 
L 143.082532 174.732272 
L 142.789707 175.649305 
L 141.500026 175.004759 
L 140.273485 175.318894 
L 138.129157 174.252503 
L 137.220425 174.616328 
L 135.828506 176.352042 
L 133.785933 175.166057 
L 132.219689 173.506164 
L 130.845914 172.590809 
L 130.514101 170.904951 
L 130.024009 169.724408 
L 131.861439 168.782673 
L 132.768126 167.740296 
L 134.555933 166.869592 
L 135.147522 166.068502 
L 135.842589 166.489581 
L 136.943989 165.996461 
" style="fill:#ffa500;"/>
    <path clip-path="url(#pedae9faac6)" d="M 211.936364 239.153704 
L 215.859353 238.48386 
L 216.980188 236.800562 
L 217.38478 235.144002 
L 219.764131 233.692067 
L 219.924382 232.217056 
L 220.815286 231.162389 
L 216.39951 228.57408 
L 222.27185 224.201226 
L 222.69379 223.387171 
L 226.876031 222.838155 
L 232.536894 223.430836 
L 244.307676 226.771845 
L 244.700635 226.603613 
L 250.959536 243.601306 
L 224.946772 254.443922 
L 224.156955 253.652558 
L 224.11519 252.727294 
L 222.603393 251.110021 
L 221.351935 250.623741 
L 219.226717 248.272566 
L 216.294479 245.92635 
L 213.843785 243.896475 
L 212.138506 244.477396 
L 212.124087 242.205812 
L 211.922629 240.818045 
L 211.936364 239.153704 
" style="fill:#ffa500;"/>
    <path clip-path="url(#pedae9faac6)" d="M 198.736988 219.263843 
L 198.955412 219.173905 
L 199.16496 218.10205 
L 201.448159 217.438445 
L 203.972325 215.357586 
L 202.318985 217.692235 
L 202.748883 218.338324 
L 202.37327 218.312882 
L 201.850373 218.798574 
L 201.355112 218.869488 
L 201.23759 219.067326 
L 201.068717 218.69788 
L 200.776747 218.533869 
L 200.156461 218.685589 
L 199.385401 219.281991 
L 198.736988 219.263843 
" style="fill:#d3d3d3;"/>
    <path clip-path="url(#pedae9faac6)" d="M 198.736988 219.263843 
L 199.385401 219.281991 
L 200.156461 218.685589 
L 200.776747 218.533869 
L 201.068717 218.69788 
L 201.23759 219.067326 
L 201.355112 218.869488 
L 201.850373 218.798574 
L 202.37327 218.312882 
L 202.748883 218.338324 
L 202.933665 218.615594 
L 200.104425 221.212858 
L 198.411035 221.190173 
L 197.266258 219.862936 
L 198.736988 219.263843 
" style="fill:#ffa500;"/>
    <path clip-path="url(#pedae9faac6)" d="M 83.91953 227.049741 
L 84.819787 229.766604 
L 84.700851 232.190961 
L 85.329236 236.517212 
L 86.120344 237.482775 
L 85.307088 238.919203 
L 80.750224 238.889415 
L 78.999626 240.081658 
L 76.968003 240.080508 
L 76.391491 242.949789 
L 72.109637 243.749363 
L 70.467931 245.443131 
L 67.444531 245.913226 
L 63.864868 245.761245 
L 57.69807 247.318362 
L 56.835941 251.905709 
L 56.297507 251.775406 
L 55.978396 253.863038 
L 53.756971 253.445931 
L 52.435857 254.033151 
L 50.822448 253.617027 
L 49.643924 252.779214 
L 46.579546 252.382731 
L 44.767238 255.050414 
L 43.592853 255.015755 
L 40.832476 259.355524 
L 39.897529 259.774953 
L 31.533787 257.181939 
L 32.824378 255.530471 
L 33.415488 253.52877 
L 35.276704 251.581833 
L 37.95901 250.928178 
L 41.121068 247.700525 
L 41.197741 247.666214 
L 43.296105 246.717255 
L 46.625663 247.229583 
L 49.949447 245.3597 
L 51.908656 244.800233 
L 55.472244 242.325371 
L 55.645929 237.290775 
L 57.642008 234.286697 
L 58.527957 232.357838 
L 61.217212 230.267242 
L 64.892338 229.281749 
L 67.648568 228.224818 
L 70.596176 224.654206 
L 72.058494 222.46528 
L 74.430888 222.972526 
L 76.100897 225.022141 
L 79.243382 225.325369 
L 82.500142 226.776598 
L 83.91953 227.049741 
" style="fill:#ffa500;"/>
    <path clip-path="url(#pedae9faac6)" d="M 180.403009 266.560942 
L 179.782212 262.376398 
L 177.658451 248.574397 
L 176.115495 245.637128 
L 176.626567 243.058366 
L 175.82531 241.492108 
L 176.760595 239.377679 
L 181.283161 238.379587 
L 184.74639 238.684313 
L 188.348216 239.040042 
L 190.046454 239.258991 
L 192.400243 237.37059 
L 193.54688 235.898058 
L 196.434653 234.777446 
L 198.928334 234.593679 
L 200.29891 236.242521 
L 200.77276 234.755942 
L 203.677665 234.862179 
L 206.335365 234.270408 
L 207.716122 232.779813 
L 207.716136 232.779797 
L 211.07409 237.755145 
L 211.675164 238.637672 
L 211.132093 240.487765 
L 211.14982 243.615357 
L 210.721239 245.906586 
L 210.081945 246.829611 
L 208.621484 245.955111 
L 206.643212 244.723731 
L 202.865476 239.951732 
L 202.599645 240.403544 
L 204.99152 244.037833 
L 208.046899 247.250428 
L 212.146973 252.3846 
L 213.961891 254.044817 
L 215.634201 255.830176 
L 217.297254 257.072781 
L 180.403009 266.560942 
" style="fill:#ffa500;"/>
    <path clip-path="url(#pedae9faac6)" d="M 124.863358 271.814437 
L 124.054532 270.502467 
L 123.914937 268.8318 
L 121.723762 265.976132 
L 123.200813 264.351813 
L 122.887799 261.890523 
L 123.35934 259.748406 
L 123.10164 257.959767 
L 123.745374 254.758668 
L 123.553599 252.931786 
L 122.415523 249.451634 
L 124.142942 248.544516 
L 124.447522 246.878908 
L 124.074826 245.244763 
L 126.464337 243.714567 
L 127.522344 242.43824 
L 129.193453 241.278119 
L 129.338968 238.236635 
L 133.393232 239.491242 
L 134.822818 239.097958 
L 137.71389 239.628984 
L 142.368118 241.125901 
L 144.199933 244.517339 
L 147.381079 245.035332 
L 152.436783 246.2216 
L 156.352429 247.765812 
L 157.962266 246.543808 
L 159.44568 244.528456 
L 158.315235 241.622534 
L 159.185257 239.57173 
L 161.432483 237.395927 
L 163.703985 236.521049 
L 168.397713 236.598255 
L 169.808143 238.154687 
L 171.077866 237.950713 
L 172.262538 238.425001 
L 175.718074 238.250205 
L 176.760595 239.377679 
L 175.82531 241.492108 
L 176.626567 243.058366 
L 176.115495 245.637128 
L 177.658451 248.574397 
L 179.782212 262.376398 
L 180.403009 266.560942 
L 124.863358 271.814437 
" style="fill:#d3d3d3;"/>
    <path clip-path="url(#pedae9faac6)" d="M 149.65064 198.944572 
L 146.890444 197.717672 
L 145.628179 196.160695 
L 144.438089 195.382105 
L 142.978423 194.008716 
L 142.25333 192.822718 
L 140.707019 191.064892 
L 141.178299 189.356783 
L 142.26913 190.191759 
L 142.81626 189.308528 
L 144.131462 189.099411 
L 146.629481 189.519501 
L 148.58233 189.247669 
L 149.963863 189.979295 
L 149.963852 189.979314 
L 150.991708 189.840833 
L 150.484975 191.683887 
L 152.050757 193.042689 
L 151.855108 194.970573 
L 151.191965 195.232596 
L 150.690197 195.663 
L 149.844482 196.702169 
L 149.65064 198.944572 
" style="fill:#d3d3d3;"/>
    <path clip-path="url(#pedae9faac6)" d="M 161.091886 198.674651 
L 162.769939 199.69539 
L 163.399534 202.276613 
L 162.850324 202.506198 
L 162.465114 203.279954 
L 160.825852 203.471549 
L 159.803891 204.519858 
L 157.875488 205.170244 
L 156.493653 204.384475 
L 155.846018 202.741203 
L 156.050177 201.335774 
L 156.050172 201.335755 
L 156.433205 201.314797 
L 156.458439 200.482263 
L 158.124346 199.607801 
L 158.76468 199.353537 
L 159.735856 198.963387 
L 161.091886 198.674651 
" style="fill:#d3d3d3;"/>
    <path clip-path="url(#pedae9faac6)" d="M 148.989806 185.853905 
L 148.98984 185.853879 
L 150.993268 184.539505 
L 152.744032 184.483867 
L 154.461594 185.834816 
L 154.951688 187.055559 
L 156.794938 187.732462 
L 157.258557 189.336616 
L 159.086092 190.225621 
L 159.835422 189.187942 
L 160.612747 189.562975 
L 160.063449 190.344605 
L 160.695226 190.947474 
L 160.134516 191.966803 
L 160.620885 193.372352 
L 162.299394 194.842067 
L 161.390954 196.272125 
L 161.096991 197.616305 
L 161.488746 198.034364 
L 161.091886 198.674651 
L 159.735856 198.963387 
L 158.76468 199.353537 
L 158.623457 199.071032 
L 158.907779 198.543983 
L 159.09584 197.52588 
L 158.682547 197.613313 
L 158.006958 196.965547 
L 157.499407 196.852104 
L 157.028493 196.277604 
L 156.449185 196.111126 
L 155.958826 195.610698 
L 155.466257 195.90599 
L 155.237194 197.283579 
L 154.572765 197.667304 
L 154.769961 197.292859 
L 153.549236 196.619061 
L 152.536799 196.316204 
L 152.04449 195.819194 
L 151.191965 195.232596 
L 151.855108 194.970573 
L 152.050757 193.042689 
L 150.484975 191.683887 
L 150.991708 189.840833 
L 149.963852 189.979314 
L 149.963863 189.979295 
L 150.876142 188.343324 
L 149.847758 187.3178 
L 148.989806 185.853905 
" style="fill:#d3d3d3;"/>
    <path clip-path="url(#pedae9faac6)" d="M 154.136203 198.633649 
L 153.385846 199.091475 
L 153.107197 198.367222 
L 152.056904 200.490782 
L 152.403756 201.732208 
L 151.743567 201.501126 
L 150.763802 200.301596 
L 149.397103 199.65907 
L 149.65064 198.944572 
L 149.844482 196.702169 
L 150.690197 195.663 
L 151.191965 195.232596 
L 152.04449 195.819194 
L 152.536799 196.316204 
L 153.549236 196.619061 
L 154.769961 197.292859 
L 154.572765 197.667304 
L 154.136203 198.633649 
" style="fill:#d3d3d3;"/>
    <path clip-path="url(#pedae9faac6)" d="M 156.050172 201.335755 
L 155.661701 199.923657 
L 154.900733 199.615238 
L 154.136203 198.633649 
L 154.572765 197.667304 
L 155.237194 197.283579 
L 155.466257 195.90599 
L 155.958826 195.610698 
L 156.449185 196.111126 
L 157.028493 196.277604 
L 157.499407 196.852104 
L 158.006958 196.965547 
L 158.682547 197.613313 
L 159.09584 197.52588 
L 158.907779 198.543983 
L 158.623457 199.071032 
L 158.76468 199.353537 
L 158.124346 199.607801 
L 156.458439 200.482263 
L 156.433205 201.314797 
L 156.050172 201.335755 
" style="fill:#d3d3d3;"/>
   </g>
   <g id="matplotlib.axis_1">
    <g id="xtick_1">
     <g id="line2d_1">
      <defs>
       <path d="M 0 0 
L 0 3.5 
" id="mc637a8661b" style="stroke:#000000;stroke-width:0.8;"/>
      </defs>
      <g>
       <use style="stroke:#000000;stroke-width:0.8;" x="40.31568" xlink:href="#mc637a8661b" y="283.910437"/>
      </g>
     </g>
     <g id="text_1">
      <!-- 2 -->
      <g transform="translate(37.13443 298.508875)scale(0.1 -0.1)">
       <defs>
        <path d="M 1228 531 
L 3431 531 
L 3431 0 
L 469 0 
L 469 531 
Q 828 903 1448 1529 
Q 2069 2156 2228 2338 
Q 2531 2678 2651 2914 
Q 2772 3150 2772 3378 
Q 2772 3750 2511 3984 
Q 2250 4219 1831 4219 
Q 1534 4219 1204 4116 
Q 875 4013 500 3803 
L 500 4441 
Q 881 4594 1212 4672 
Q 1544 4750 1819 4750 
Q 2544 4750 2975 4387 
Q 3406 4025 3406 3419 
Q 3406 3131 3298 2873 
Q 3191 2616 2906 2266 
Q 2828 2175 2409 1742 
Q 1991 1309 1228 531 
z
" id="DejaVuSans-32" transform="scale(0.015625)"/>
       </defs>
       <use xlink:href="#DejaVuSans-32"/>
      </g>
     </g>
    </g>
    <g id="xtick_2">
     <g id="line2d_2">
      <g>
       <use style="stroke:#000000;stroke-width:0.8;" x="76.478159" xlink:href="#mc637a8661b" y="283.910437"/>
      </g>
     </g>
     <g id="text_2">
      <!-- 3 -->
      <g transform="translate(73.296909 298.508875)scale(0.1 -0.1)">
       <defs>
        <path d="M 2597 2516 
Q 3050 2419 3304 2112 
Q 3559 1806 3559 1356 
Q 3559 666 3084 287 
Q 2609 -91 1734 -91 
Q 1441 -91 1130 -33 
Q 819 25 488 141 
L 488 750 
Q 750 597 1062 519 
Q 1375 441 1716 441 
Q 2309 441 2620 675 
Q 2931 909 2931 1356 
Q 2931 1769 2642 2001 
Q 2353 2234 1838 2234 
L 1294 2234 
L 1294 2753 
L 1863 2753 
Q 2328 2753 2575 2939 
Q 2822 3125 2822 3475 
Q 2822 3834 2567 4026 
Q 2313 4219 1838 4219 
Q 1578 4219 1281 4162 
Q 984 4106 628 3988 
L 628 4550 
Q 988 4650 1302 4700 
Q 1616 4750 1894 4750 
Q 2613 4750 3031 4423 
Q 3450 4097 3450 3541 
Q 3450 3153 3228 2886 
Q 3006 2619 2597 2516 
z
" id="DejaVuSans-33" transform="scale(0.015625)"/>
       </defs>
       <use xlink:href="#DejaVuSans-33"/>
      </g>
     </g>
    </g>
    <g id="xtick_3">
     <g id="line2d_3">
      <g>
       <use style="stroke:#000000;stroke-width:0.8;" x="112.640638" xlink:href="#mc637a8661b" y="283.910437"/>
      </g>
     </g>
     <g id="text_3">
      <!-- 4 -->
      <g transform="translate(109.459388 298.508875)scale(0.1 -0.1)">
       <defs>
        <path d="M 2419 4116 
L 825 1625 
L 2419 1625 
L 2419 4116 
z
M 2253 4666 
L 3047 4666 
L 3047 1625 
L 3713 1625 
L 3713 1100 
L 3047 1100 
L 3047 0 
L 2419 0 
L 2419 1100 
L 313 1100 
L 313 1709 
L 2253 4666 
z
" id="DejaVuSans-34" transform="scale(0.015625)"/>
       </defs>
       <use xlink:href="#DejaVuSans-34"/>
      </g>
     </g>
    </g>
    <g id="xtick_4">
     <g id="line2d_4">
      <g>
       <use style="stroke:#000000;stroke-width:0.8;" x="148.803117" xlink:href="#mc637a8661b" y="283.910437"/>
      </g>
     </g>
     <g id="text_4">
      <!-- 5 -->
      <g transform="translate(145.621867 298.508875)scale(0.1 -0.1)">
       <defs>
        <path d="M 691 4666 
L 3169 4666 
L 3169 4134 
L 1269 4134 
L 1269 2991 
Q 1406 3038 1543 3061 
Q 1681 3084 1819 3084 
Q 2600 3084 3056 2656 
Q 3513 2228 3513 1497 
Q 3513 744 3044 326 
Q 2575 -91 1722 -91 
Q 1428 -91 1123 -41 
Q 819 9 494 109 
L 494 744 
Q 775 591 1075 516 
Q 1375 441 1709 441 
Q 2250 441 2565 725 
Q 2881 1009 2881 1497 
Q 2881 1984 2565 2268 
Q 2250 2553 1709 2553 
Q 1456 2553 1204 2497 
Q 953 2441 691 2322 
L 691 4666 
z
" id="DejaVuSans-35" transform="scale(0.015625)"/>
       </defs>
       <use xlink:href="#DejaVuSans-35"/>
      </g>
     </g>
    </g>
    <g id="xtick_5">
     <g id="line2d_5">
      <g>
       <use style="stroke:#000000;stroke-width:0.8;" x="184.965596" xlink:href="#mc637a8661b" y="283.910437"/>
      </g>
     </g>
     <g id="text_5">
      <!-- 6 -->
      <g transform="translate(181.784346 298.508875)scale(0.1 -0.1)">
       <defs>
        <path d="M 2113 2584 
Q 1688 2584 1439 2293 
Q 1191 2003 1191 1497 
Q 1191 994 1439 701 
Q 1688 409 2113 409 
Q 2538 409 2786 701 
Q 3034 994 3034 1497 
Q 3034 2003 2786 2293 
Q 2538 2584 2113 2584 
z
M 3366 4563 
L 3366 3988 
Q 3128 4100 2886 4159 
Q 2644 4219 2406 4219 
Q 1781 4219 1451 3797 
Q 1122 3375 1075 2522 
Q 1259 2794 1537 2939 
Q 1816 3084 2150 3084 
Q 2853 3084 3261 2657 
Q 3669 2231 3669 1497 
Q 3669 778 3244 343 
Q 2819 -91 2113 -91 
Q 1303 -91 875 529 
Q 447 1150 447 2328 
Q 447 3434 972 4092 
Q 1497 4750 2381 4750 
Q 2619 4750 2861 4703 
Q 3103 4656 3366 4563 
z
" id="DejaVuSans-36" transform="scale(0.015625)"/>
       </defs>
       <use xlink:href="#DejaVuSans-36"/>
      </g>
     </g>
    </g>
    <g id="xtick_6">
     <g id="line2d_6">
      <g>
       <use style="stroke:#000000;stroke-width:0.8;" x="221.128075" xlink:href="#mc637a8661b" y="283.910437"/>
      </g>
     </g>
     <g id="text_6">
      <!-- 7 -->
      <g transform="translate(217.946825 298.508875)scale(0.1 -0.1)">
       <defs>
        <path d="M 525 4666 
L 3525 4666 
L 3525 4397 
L 1831 0 
L 1172 0 
L 2766 4134 
L 525 4134 
L 525 4666 
z
" id="DejaVuSans-37" transform="scale(0.015625)"/>
       </defs>
       <use xlink:href="#DejaVuSans-37"/>
      </g>
     </g>
    </g>
    <g id="xtick_7">
     <g id="line2d_7">
      <g>
       <use style="stroke:#000000;stroke-width:0.8;" x="257.290554" xlink:href="#mc637a8661b" y="283.910437"/>
      </g>
     </g>
     <g id="text_7">
      <!-- 8 -->
      <g transform="translate(254.109304 298.508875)scale(0.1 -0.1)">
       <defs>
        <path d="M 2034 2216 
Q 1584 2216 1326 1975 
Q 1069 1734 1069 1313 
Q 1069 891 1326 650 
Q 1584 409 2034 409 
Q 2484 409 2743 651 
Q 3003 894 3003 1313 
Q 3003 1734 2745 1975 
Q 2488 2216 2034 2216 
z
M 1403 2484 
Q 997 2584 770 2862 
Q 544 3141 544 3541 
Q 544 4100 942 4425 
Q 1341 4750 2034 4750 
Q 2731 4750 3128 4425 
Q 3525 4100 3525 3541 
Q 3525 3141 3298 2862 
Q 3072 2584 2669 2484 
Q 3125 2378 3379 2068 
Q 3634 1759 3634 1313 
Q 3634 634 3220 271 
Q 2806 -91 2034 -91 
Q 1263 -91 848 271 
Q 434 634 434 1313 
Q 434 1759 690 2068 
Q 947 2378 1403 2484 
z
M 1172 3481 
Q 1172 3119 1398 2916 
Q 1625 2713 2034 2713 
Q 2441 2713 2670 2916 
Q 2900 3119 2900 3481 
Q 2900 3844 2670 4047 
Q 2441 4250 2034 4250 
Q 1625 4250 1398 4047 
Q 1172 3844 1172 3481 
z
" id="DejaVuSans-38" transform="scale(0.015625)"/>
       </defs>
       <use xlink:href="#DejaVuSans-38"/>
      </g>
     </g>
    </g>
    <g id="text_8">
     <!-- 1e6 -->
     <g transform="translate(243.052699 311.187)scale(0.1 -0.1)">
      <defs>
       <path d="M 794 531 
L 1825 531 
L 1825 4091 
L 703 3866 
L 703 4441 
L 1819 4666 
L 2450 4666 
L 2450 531 
L 3481 531 
L 3481 0 
L 794 0 
L 794 531 
z
" id="DejaVuSans-31" transform="scale(0.015625)"/>
       <path d="M 3597 1894 
L 3597 1613 
L 953 1613 
Q 991 1019 1311 708 
Q 1631 397 2203 397 
Q 2534 397 2845 478 
Q 3156 559 3463 722 
L 3463 178 
Q 3153 47 2828 -22 
Q 2503 -91 2169 -91 
Q 1331 -91 842 396 
Q 353 884 353 1716 
Q 353 2575 817 3079 
Q 1281 3584 2069 3584 
Q 2775 3584 3186 3129 
Q 3597 2675 3597 1894 
z
M 3022 2063 
Q 3016 2534 2758 2815 
Q 2500 3097 2075 3097 
Q 1594 3097 1305 2825 
Q 1016 2553 972 2059 
L 3022 2063 
z
" id="DejaVuSans-65" transform="scale(0.015625)"/>
      </defs>
      <use xlink:href="#DejaVuSans-31"/>
      <use x="63.623047" xlink:href="#DejaVuSans-65"/>
      <use x="125.146484" xlink:href="#DejaVuSans-36"/>
     </g>
    </g>
   </g>
   <g id="matplotlib.axis_2">
    <g id="ytick_1">
     <g id="line2d_8">
      <defs>
       <path d="M 0 0 
L -3.5 0 
" id="m24c3f4ec2b" style="stroke:#000000;stroke-width:0.8;"/>
      </defs>
      <g>
       <use style="stroke:#000000;stroke-width:0.8;" x="20.5625" xlink:href="#m24c3f4ec2b" y="278.919633"/>
      </g>
     </g>
     <g id="text_9">
      <!-- 0 -->
      <g transform="translate(7.2 282.718852)scale(0.1 -0.1)">
       <defs>
        <path d="M 2034 4250 
Q 1547 4250 1301 3770 
Q 1056 3291 1056 2328 
Q 1056 1369 1301 889 
Q 1547 409 2034 409 
Q 2525 409 2770 889 
Q 3016 1369 3016 2328 
Q 3016 3291 2770 3770 
Q 2525 4250 2034 4250 
z
M 2034 4750 
Q 2819 4750 3233 4129 
Q 3647 3509 3647 2328 
Q 3647 1150 3233 529 
Q 2819 -91 2034 -91 
Q 1250 -91 836 529 
Q 422 1150 422 2328 
Q 422 3509 836 4129 
Q 1250 4750 2034 4750 
z
" id="DejaVuSans-30" transform="scale(0.015625)"/>
       </defs>
       <use xlink:href="#DejaVuSans-30"/>
      </g>
     </g>
    </g>
    <g id="ytick_2">
     <g id="line2d_9">
      <g>
       <use style="stroke:#000000;stroke-width:0.8;" x="20.5625" xlink:href="#m24c3f4ec2b" y="242.757154"/>
      </g>
     </g>
     <g id="text_10">
      <!-- 1 -->
      <g transform="translate(7.2 246.556373)scale(0.1 -0.1)">
       <use xlink:href="#DejaVuSans-31"/>
      </g>
     </g>
    </g>
    <g id="ytick_3">
     <g id="line2d_10">
      <g>
       <use style="stroke:#000000;stroke-width:0.8;" x="20.5625" xlink:href="#m24c3f4ec2b" y="206.594675"/>
      </g>
     </g>
     <g id="text_11">
      <!-- 2 -->
      <g transform="translate(7.2 210.393894)scale(0.1 -0.1)">
       <use xlink:href="#DejaVuSans-32"/>
      </g>
     </g>
    </g>
    <g id="ytick_4">
     <g id="line2d_11">
      <g>
       <use style="stroke:#000000;stroke-width:0.8;" x="20.5625" xlink:href="#m24c3f4ec2b" y="170.432196"/>
      </g>
     </g>
     <g id="text_12">
      <!-- 3 -->
      <g transform="translate(7.2 174.231415)scale(0.1 -0.1)">
       <use xlink:href="#DejaVuSans-33"/>
      </g>
     </g>
    </g>
    <g id="ytick_5">
     <g id="line2d_12">
      <g>
       <use style="stroke:#000000;stroke-width:0.8;" x="20.5625" xlink:href="#m24c3f4ec2b" y="134.269717"/>
      </g>
     </g>
     <g id="text_13">
      <!-- 4 -->
      <g transform="translate(7.2 138.068936)scale(0.1 -0.1)">
       <use xlink:href="#DejaVuSans-34"/>
      </g>
     </g>
    </g>
    <g id="ytick_6">
     <g id="line2d_13">
      <g>
       <use style="stroke:#000000;stroke-width:0.8;" x="20.5625" xlink:href="#m24c3f4ec2b" y="98.107239"/>
      </g>
     </g>
     <g id="text_14">
      <!-- 5 -->
      <g transform="translate(7.2 101.906457)scale(0.1 -0.1)">
       <use xlink:href="#DejaVuSans-35"/>
      </g>
     </g>
    </g>
    <g id="ytick_7">
     <g id="line2d_14">
      <g>
       <use style="stroke:#000000;stroke-width:0.8;" x="20.5625" xlink:href="#m24c3f4ec2b" y="61.94476"/>
      </g>
     </g>
     <g id="text_15">
      <!-- 6 -->
      <g transform="translate(7.2 65.743978)scale(0.1 -0.1)">
       <use xlink:href="#DejaVuSans-36"/>
      </g>
     </g>
    </g>
    <g id="ytick_8">
     <g id="line2d_15">
      <g>
       <use style="stroke:#000000;stroke-width:0.8;" x="20.5625" xlink:href="#m24c3f4ec2b" y="25.782281"/>
      </g>
     </g>
     <g id="text_16">
      <!-- 7 -->
      <g transform="translate(7.2 29.581499)scale(0.1 -0.1)">
       <use xlink:href="#DejaVuSans-37"/>
      </g>
     </g>
    </g>
    <g id="text_17">
     <!-- 1e6 -->
     <g transform="translate(20.5625 14.798437)scale(0.1 -0.1)">
      <use xlink:href="#DejaVuSans-31"/>
      <use x="63.623047" xlink:href="#DejaVuSans-65"/>
      <use x="125.146484" xlink:href="#DejaVuSans-36"/>
     </g>
    </g>
   </g>
   <g id="patch_3">
    <path d="M 20.5625 283.910437 
L 20.5625 17.798437 
" style="fill:none;stroke:#000000;stroke-linecap:square;stroke-linejoin:miter;stroke-width:0.8;"/>
   </g>
   <g id="patch_4">
    <path d="M 261.930824 283.910437 
L 261.930824 17.798437 
" style="fill:none;stroke:#000000;stroke-linecap:square;stroke-linejoin:miter;stroke-width:0.8;"/>
   </g>
   <g id="patch_5">
    <path d="M 20.5625 283.910437 
L 261.930824 283.910437 
" style="fill:none;stroke:#000000;stroke-linecap:square;stroke-linejoin:miter;stroke-width:0.8;"/>
   </g>
   <g id="patch_6">
    <path d="M 20.5625 17.798437 
L 261.930824 17.798437 
" style="fill:none;stroke:#000000;stroke-linecap:square;stroke-linejoin:miter;stroke-width:0.8;"/>
   </g>
  </g>
 </g>
 <defs>
  <clipPath id="pedae9faac6">
   <rect height="266.112" width="241.368324" x="20.5625" y="17.798437"/>
  </clipPath>
 </defs>
</svg>
